<svg width="21" height="20" viewBox="0 0 21 20" fill="none" xmlns="http://www.w3.org/2000/svg">
<path d="M19.3443 16.011L15.961 12.6277L13.3586 11.5525C14.2251 10.3203 14.6893 8.85023 14.6876 7.34382C14.6876 3.29441 11.3932 0 7.34382 0C3.29441 0 0 3.29441 0 7.34382C0 11.3932 3.29441 14.6876 7.34382 14.6876C8.86334 14.6894 10.3456 14.2171 11.584 13.3367L12.6564 15.932L16.0396 19.3155C16.2565 19.5325 16.5141 19.7047 16.7976 19.8221C17.0811 19.9395 17.385 20 17.6919 20C17.9987 20 18.3026 19.9396 18.5861 19.8222C18.8696 19.7047 19.1272 19.5326 19.3442 19.3156C19.5612 19.0987 19.7333 18.8411 19.8507 18.5576C19.9682 18.2741 20.0286 17.9702 20.0286 17.6634C20.0287 17.3565 19.9682 17.0526 19.8508 16.7691C19.7334 16.4856 19.5613 16.228 19.3443 16.011ZM1.33524 7.34382C1.33524 4.03076 4.03076 1.33524 7.34382 1.33524C10.6569 1.33524 13.3524 4.03076 13.3524 7.34382C13.3524 10.6569 10.6569 13.3524 7.34382 13.3524C4.03076 13.3524 1.33524 10.6569 1.33524 7.34382ZM18.4001 18.3714C18.2121 18.5589 17.9574 18.6642 17.6919 18.6642C17.4264 18.6642 17.1717 18.5589 16.9838 18.3714L13.7887 15.1763L12.7917 12.7631L15.205 13.7601L18.4001 16.9552C18.5877 17.1431 18.6929 17.3978 18.6929 17.6633C18.6929 17.9288 18.5876 18.1835 18.4001 18.3714Z" fill="#F3F0FA"/>
</svg>
