<svg width="157" height="138" viewBox="0 0 157 138" fill="none" xmlns="http://www.w3.org/2000/svg">
<path d="M56.7642 103.288C55.4362 103.288 54.2122 103.08 53.0922 102.664C51.9882 102.232 51.0202 101.624 50.1882 100.84C49.3722 100.056 48.7322 99.136 48.2682 98.08C47.8202 97.024 47.5962 95.864 47.5962 94.6C47.5962 93.336 47.8202 92.176 48.2682 91.12C48.7322 90.064 49.3802 89.144 50.2122 88.36C51.0442 87.576 52.0202 86.976 53.1402 86.56C54.2602 86.128 55.4922 85.912 56.8362 85.912C58.3242 85.912 59.6602 86.16 60.8442 86.656C62.0442 87.152 63.0522 87.872 63.8682 88.816L61.3722 91.12C60.7642 90.48 60.1002 90.008 59.3802 89.704C58.6602 89.384 57.8762 89.224 57.0282 89.224C56.2122 89.224 55.4682 89.352 54.7962 89.608C54.1242 89.864 53.5402 90.232 53.0442 90.712C52.5642 91.192 52.1882 91.76 51.9162 92.416C51.6602 93.072 51.5322 93.8 51.5322 94.6C51.5322 95.384 51.6602 96.104 51.9162 96.76C52.1882 97.416 52.5642 97.992 53.0442 98.488C53.5402 98.968 54.1162 99.336 54.7722 99.592C55.4442 99.848 56.1802 99.976 56.9802 99.976C57.7482 99.976 58.4922 99.856 59.2122 99.616C59.9482 99.36 60.6602 98.936 61.3482 98.344L63.5562 101.152C62.6442 101.84 61.5802 102.368 60.3642 102.736C59.1642 103.104 57.9642 103.288 56.7642 103.288ZM60.0042 100.648V94.336H63.5562V101.152L60.0042 100.648ZM74.6318 103.288C72.2478 103.288 70.3838 102.624 69.0398 101.296C67.6958 99.968 67.0238 98.072 67.0238 95.608V86.2H70.9118V95.464C70.9118 97.064 71.2398 98.216 71.8958 98.92C72.5518 99.624 73.4718 99.976 74.6558 99.976C75.8398 99.976 76.7598 99.624 77.4158 98.92C78.0718 98.216 78.3998 97.064 78.3998 95.464V86.2H82.2398V95.608C82.2398 98.072 81.5678 99.968 80.2238 101.296C78.8798 102.624 77.0158 103.288 74.6318 103.288ZM86.0818 103V86.2H89.9698V103H86.0818ZM91.7488 103L99.2368 86.2H103.077L110.589 103H106.509L100.365 88.168H101.901L95.7328 103H91.7488ZM95.4928 99.4L96.5248 96.448H105.165L106.221 99.4H95.4928ZM2.02325 132V115.2H9.65525C11.4793 115.2 13.0873 115.552 14.4793 116.256C15.8713 116.944 16.9593 117.912 17.7433 119.16C18.5273 120.408 18.9193 121.888 18.9193 123.6C18.9193 125.296 18.5273 126.776 17.7433 128.04C16.9593 129.288 15.8713 130.264 14.4793 130.968C13.0873 131.656 11.4793 132 9.65525 132H2.02325ZM5.91125 128.808H9.46325C10.5833 128.808 11.5513 128.6 12.3672 128.184C13.1993 127.752 13.8393 127.144 14.2873 126.36C14.7513 125.576 14.9833 124.656 14.9833 123.6C14.9833 122.528 14.7513 121.608 14.2873 120.84C13.8393 120.056 13.1993 119.456 12.3672 119.04C11.5513 118.608 10.5833 118.392 9.46325 118.392H5.91125V128.808ZM30.0114 132.288C28.6834 132.288 27.4514 132.072 26.3154 131.64C25.1954 131.208 24.2194 130.6 23.3874 129.816C22.5714 129.032 21.9314 128.112 21.4674 127.056C21.0194 126 20.7954 124.848 20.7954 123.6C20.7954 122.352 21.0194 121.2 21.4674 120.144C21.9314 119.088 22.5794 118.168 23.4114 117.384C24.2434 116.6 25.2194 115.992 26.3394 115.56C27.4594 115.128 28.6754 114.912 29.9874 114.912C31.3154 114.912 32.5314 115.128 33.6354 115.56C34.7554 115.992 35.7234 116.6 36.5394 117.384C37.3714 118.168 38.0194 119.088 38.4834 120.144C38.9474 121.184 39.1794 122.336 39.1794 123.6C39.1794 124.848 38.9474 126.008 38.4834 127.08C38.0194 128.136 37.3714 129.056 36.5394 129.84C35.7234 130.608 34.7554 131.208 33.6354 131.64C32.5314 132.072 31.3234 132.288 30.0114 132.288ZM29.9874 128.976C30.7394 128.976 31.4274 128.848 32.0514 128.592C32.6914 128.336 33.2514 127.968 33.7314 127.488C34.2114 127.008 34.5794 126.44 34.8354 125.784C35.1074 125.128 35.2434 124.4 35.2434 123.6C35.2434 122.8 35.1074 122.072 34.8354 121.416C34.5794 120.76 34.2114 120.192 33.7314 119.712C33.2674 119.232 32.7154 118.864 32.0754 118.608C31.4354 118.352 30.7394 118.224 29.9874 118.224C29.2354 118.224 28.5394 118.352 27.8994 118.608C27.2754 118.864 26.7234 119.232 26.2434 119.712C25.7634 120.192 25.3874 120.76 25.1154 121.416C24.8594 122.072 24.7314 122.8 24.7314 123.6C24.7314 124.384 24.8594 125.112 25.1154 125.784C25.3874 126.44 25.7554 127.008 26.2194 127.488C26.6994 127.968 27.2594 128.336 27.8994 128.592C28.5394 128.848 29.2354 128.976 29.9874 128.976ZM56.9383 132.288C55.6423 132.288 54.4343 132.08 53.3143 131.664C52.2103 131.232 51.2503 130.624 50.4342 129.84C49.6183 129.056 48.9783 128.136 48.5143 127.08C48.0663 126.024 47.8423 124.864 47.8423 123.6C47.8423 122.336 48.0663 121.176 48.5143 120.12C48.9783 119.064 49.6183 118.144 50.4342 117.36C51.2663 116.576 52.2343 115.976 53.3383 115.56C54.4423 115.128 55.6503 114.912 56.9623 114.912C58.4183 114.912 59.7303 115.168 60.8983 115.68C62.0823 116.176 63.0743 116.912 63.8743 117.888L61.3783 120.192C60.8023 119.536 60.1623 119.048 59.4583 118.728C58.7543 118.392 57.9863 118.224 57.1543 118.224C56.3703 118.224 55.6503 118.352 54.9943 118.608C54.3383 118.864 53.7703 119.232 53.2903 119.712C52.8103 120.192 52.4343 120.76 52.1623 121.416C51.9063 122.072 51.7783 122.8 51.7783 123.6C51.7783 124.4 51.9063 125.128 52.1623 125.784C52.4343 126.44 52.8103 127.008 53.2903 127.488C53.7703 127.968 54.3383 128.336 54.9943 128.592C55.6503 128.848 56.3703 128.976 57.1543 128.976C57.9863 128.976 58.7543 128.816 59.4583 128.496C60.1623 128.16 60.8023 127.656 61.3783 126.984L63.8743 129.288C63.0743 130.264 62.0823 131.008 60.8983 131.52C59.7303 132.032 58.4103 132.288 56.9383 132.288ZM63.9871 132L71.4751 115.2H75.3151L82.8271 132H78.7471L72.6031 117.168H74.1391L67.9711 132H63.9871ZM67.7311 128.4L68.7631 125.448H77.4031L78.4591 128.4H67.7311ZM84.5701 132V115.2H87.7861L94.9381 127.056H93.2341L100.266 115.2H103.458L103.506 132H99.8581L99.8341 120.792H100.506L94.8901 130.224H93.1381L87.4021 120.792H88.2181V132H84.5701ZM107.492 132V115.2H114.764C116.268 115.2 117.564 115.448 118.652 115.944C119.74 116.424 120.58 117.12 121.172 118.032C121.764 118.944 122.06 120.032 122.06 121.296C122.06 122.544 121.764 123.624 121.172 124.536C120.58 125.448 119.74 126.152 118.652 126.648C117.564 127.128 116.268 127.368 114.764 127.368H109.652L111.38 125.616V132H107.492ZM111.38 126.048L109.652 124.2H114.548C115.748 124.2 116.644 123.944 117.236 123.432C117.828 122.92 118.124 122.208 118.124 121.296C118.124 120.368 117.828 119.648 117.236 119.136C116.644 118.624 115.748 118.368 114.548 118.368H109.652L111.38 116.52V126.048ZM132.206 132.288C129.822 132.288 127.958 131.624 126.614 130.296C125.27 128.968 124.598 127.072 124.598 124.608V115.2H128.486V124.464C128.486 126.064 128.814 127.216 129.47 127.92C130.126 128.624 131.046 128.976 132.23 128.976C133.414 128.976 134.334 128.624 134.99 127.92C135.646 127.216 135.974 126.064 135.974 124.464V115.2H139.814V124.608C139.814 127.072 139.142 128.968 137.798 130.296C136.454 131.624 134.59 132.288 132.206 132.288ZM149.176 132.288C147.832 132.288 146.544 132.112 145.312 131.76C144.08 131.392 143.088 130.92 142.336 130.344L143.656 127.416C144.376 127.928 145.224 128.352 146.2 128.688C147.192 129.008 148.192 129.168 149.2 129.168C149.968 129.168 150.584 129.096 151.048 128.952C151.528 128.792 151.88 128.576 152.104 128.304C152.328 128.032 152.44 127.72 152.44 127.368C152.44 126.92 152.264 126.568 151.912 126.312C151.56 126.04 151.096 125.824 150.52 125.664C149.944 125.488 149.304 125.328 148.6 125.184C147.912 125.024 147.216 124.832 146.512 124.608C145.824 124.384 145.192 124.096 144.616 123.744C144.04 123.392 143.568 122.928 143.2 122.352C142.848 121.776 142.672 121.04 142.672 120.144C142.672 119.184 142.928 118.312 143.44 117.528C143.968 116.728 144.752 116.096 145.792 115.632C146.848 115.152 148.168 114.912 149.752 114.912C150.808 114.912 151.848 115.04 152.872 115.296C153.896 115.536 154.8 115.904 155.584 116.4L154.384 119.352C153.6 118.904 152.816 118.576 152.032 118.368C151.248 118.144 150.48 118.032 149.728 118.032C148.976 118.032 148.36 118.12 147.88 118.296C147.4 118.472 147.056 118.704 146.848 118.992C146.64 119.264 146.536 119.584 146.536 119.952C146.536 120.384 146.712 120.736 147.064 121.008C147.416 121.264 147.88 121.472 148.456 121.632C149.032 121.792 149.664 121.952 150.352 122.112C151.056 122.272 151.752 122.456 152.44 122.664C153.144 122.872 153.784 123.152 154.36 123.504C154.936 123.856 155.4 124.32 155.752 124.896C156.12 125.472 156.304 126.2 156.304 127.08C156.304 128.024 156.04 128.888 155.512 129.672C154.984 130.456 154.192 131.088 153.136 131.568C152.096 132.048 150.776 132.288 149.176 132.288Z" fill="#3F91F0"/>
<path d="M49 18.5L78.3712 3L108 18.5" stroke="#3F91F0" stroke-width="5"/>
<path d="M78.75 30.75C70.6097 25.4446 65.1007 24.9346 53.75 28C53.75 37.5 54.25 56.85 54.25 59.25H78.4562M78.75 30.75C86.0658 25.6517 91.1071 24.4725 103.25 28L103 59C93.4322 59 88.3178 59.25 78.75 59.25V30.75Z" stroke="#3F91F0" stroke-width="5"/>
<path d="M81 59.25C89.0457 54.1841 101.485 57.4906 101.5 59.25" stroke="#3F91F0" stroke-width="5"/>
<path d="M55.5 59.1955C63.5457 54.1296 75.9848 57.4361 76 59.1955" stroke="#3F91F0" stroke-width="5"/>
</svg>
