<svg width="24" height="24" viewBox="0 0 24 24" fill="none" xmlns="http://www.w3.org/2000/svg">
<path d="M12.6142 24C9.23544 24 6.06518 22.6904 3.68733 20.3127C1.30948 17.9349 2.95423e-07 14.7645 2.95423e-07 11.3856C-0.000504097 9.05478 0.644884 6.76937 1.86453 4.78308C3.08418 2.79679 4.83037 1.18732 6.90929 0.133299C7.12318 0.0242699 7.36443 -0.019347 7.60295 0.0078933C7.84147 0.0351336 8.06668 0.132024 8.25047 0.286471C8.43426 0.440917 8.56849 0.646077 8.6364 0.876339C8.70431 1.1066 8.7029 1.35177 8.63233 1.58123C8.0391 3.49737 7.9808 5.53921 8.46372 7.48608C8.94664 9.43296 9.95243 11.2108 11.3724 12.6276C12.3914 13.6542 13.6039 14.4685 14.9397 15.0233C16.2756 15.5781 17.7082 15.8624 19.1546 15.8598C20.2612 15.8607 21.3615 15.6947 22.4186 15.3675C22.648 15.2969 22.8932 15.2955 23.1235 15.3634C23.3538 15.4313 23.559 15.5655 23.7135 15.7493C23.8679 15.9331 23.9648 16.1583 23.9921 16.3969C24.0193 16.6354 23.9756 16.8767 23.8665 17.0906C22.8125 19.1695 21.2031 20.9157 19.2168 22.1354C17.2305 23.3551 14.9451 24.0005 12.6142 24ZM6.86564 1.98859C5.25355 2.96945 3.92186 4.34975 2.99941 5.99596C2.07696 7.64218 1.59496 9.4986 1.60003 11.3856C1.60003 17.4589 6.54094 22.4 12.6142 22.4C14.5013 22.4051 16.3577 21.9231 18.0039 21.0006C19.6501 20.0781 21.0304 18.7465 22.0113 17.1344C21.0746 17.3511 20.1162 17.4604 19.1548 17.46C17.4981 17.4632 15.8573 17.1377 14.3272 16.5024C12.7972 15.8672 11.4084 14.9348 10.2412 13.7591C8.72481 12.2457 7.61915 10.3707 7.02854 8.31132C6.43794 6.25191 6.38187 4.07597 6.86564 1.98889V1.98859Z" fill="#3C3B42"/>
</svg>
