<svg width="24" height="24" viewBox="0 0 24 24" fill="none" xmlns="http://www.w3.org/2000/svg">
<path d="M12 4.40002C7.80937 4.40002 4.40002 7.80937 4.40002 12C4.40002 16.1907 7.80937 19.6 12 19.6C16.1907 19.6 19.6 16.1907 19.6 12C19.6 7.80937 16.1907 4.40002 12 4.40002ZM12 18C10.8133 18 9.6533 17.6481 8.6666 16.9888C7.67991 16.3296 6.91087 15.3925 6.45675 14.2961C6.00262 13.1998 5.8838 11.9934 6.11531 10.8295C6.34682 9.6656 6.91827 8.5965 7.75738 7.75738C8.5965 6.91827 9.6656 6.34682 10.8295 6.11531C11.9934 5.8838 13.1998 6.00262 14.2961 6.45675C15.3925 6.91087 16.3296 7.67991 16.9888 8.6666C17.6481 9.6533 18 10.8133 18 12C17.9982 13.5908 17.3655 15.1158 16.2407 16.2407C15.1158 17.3655 13.5908 17.9982 12 18Z" fill="#6D6C76"/>
<path d="M12.8 0H11.2V2.4H12.8V0Z" fill="#6D6C76"/>
<path d="M12.8 21.6H11.2V24H12.8V21.6Z" fill="#6D6C76"/>
<path d="M24 11.2H21.6V12.8H24V11.2Z" fill="#6D6C76"/>
<path d="M2.4 11.2H0V12.8H2.4V11.2Z" fill="#6D6C76"/>
<path d="M19.7656 18.6343L18.6343 19.7657L20.2343 21.3657L21.3657 20.2343L19.7656 18.6343Z" fill="#6D6C76"/>
<path d="M3.76568 2.63428L2.63428 3.76569L4.23428 5.36569L5.36569 4.23429L3.76568 2.63428Z" fill="#6D6C76"/>
<path d="M4.23426 18.6344L2.63428 20.2344L3.76567 21.3658L5.36565 19.7658L4.23426 18.6344Z" fill="#6D6C76"/>
<path d="M20.2343 2.63431L18.6343 4.23431L19.7657 5.36572L21.3657 3.76571L20.2343 2.63431Z" fill="#6D6C76"/>
</svg>
